<?xml version="1.0" encoding="utf-8"?>
<!-- Generator: Adobe Illustrator 26.0.1, SVG Export Plug-In . SVG Version: 6.00 Build 0)  -->
<svg version="1.1" id="Layer_1" xmlns="http://www.w3.org/2000/svg" xmlns:xlink="http://www.w3.org/1999/xlink" x="0px" y="0px"
	 viewBox="0 0 257.83 283.46" style="enable-background:new 0 0 257.83 283.46;" xml:space="preserve">
<style type="text/css">
	.st0{fill:#BF9363;}
	.st1{fill:#FFFFFF;}
	.st2{clip-path:url(#SVGID_00000178201513848465450200000016608035750087021487_);fill:#3D1D18;}
	.st3{clip-path:url(#SVGID_00000178201513848465450200000016608035750087021487_);fill:#BF9363;}
	.st4{clip-path:url(#SVGID_00000178201513848465450200000016608035750087021487_);}
	.st5{clip-path:url(#SVGID_00000178201513848465450200000016608035750087021487_);fill:#FFFFFF;}
</style>
<path class="st0" d="M99.84,476.01c2.88-1.92,5.71-3.54,8.24-5.54c3-2.38,5.82-5.02,8.58-7.7c2.18-2.12,4.15-4.47,6.22-6.72
	c0.2-0.22,0.47-0.43,0.54-0.7c0.49-1.8,1.78-1.88,3.31-1.87c26.66,0.05,53.31,0.06,79.97,0.07c1.77,0,1.77,0,1.77,1.74
	c0,6.4,0,12.8,0,19.2c0,0.47,0,0.94,0,1.53C172.31,476.01,136.2,476.01,99.84,476.01z M142.21,464.3c-0.01,0.08-0.02,0.29-0.04,0.51
	c-0.23,3.29,1.58,6.5,4.3,7.59c3.52,1.42,7.48,0.58,9.57-2.04c1.6-2,1.76-4.38,1.67-6.81c-0.31-7.61-7.51-9.04-11.9-6.63
	C143.04,458.44,142.11,461.08,142.21,464.3z M134.72,456.26c0,1.71-0.04,3.24,0.01,4.78c0.03,0.91-0.32,1.23-1.18,1.19
	c-1.01-0.05-2.02-0.06-3.03,0c-0.92,0.05-1.17-0.37-1.13-1.23c0.05-1.24-0.01-2.49,0.02-3.74c0.01-0.7-0.28-1.14-0.95-1.01
	c-1.08,0.2-2.34-0.63-3.25,0.55c-0.06,0.08-0.03,0.25-0.03,0.38c0,4.9-0.01,9.79,0.03,14.69c0,0.28,0.33,0.77,0.53,0.79
	c1.2,0.07,2.4,0.04,3.66,0.04c0-2.19,0.02-4.17-0.01-6.14c-0.01-0.77,0.26-1.11,1.03-1.08c0.97,0.03,1.94,0.08,2.9-0.01
	c1.12-0.11,1.47,0.29,1.42,1.43c-0.09,1.91-0.02,3.82-0.02,5.7c1.46,0,2.73,0,4.08,0c0-5.26,0.01-10.41-0.03-15.56
	c0-0.27-0.36-0.74-0.57-0.76C137.09,456.22,135.96,456.26,134.72,456.26z M165.01,456.23c-1.21,0-2.25,0.03-3.29-0.01
	c-0.78-0.03-1,0.33-0.99,1.09c0.03,3.26-0.04,6.52,0.04,9.78c0.04,1.49,0.31,2.93,1.48,4.08c2.08,2.06,4.61,2.02,7.19,1.72
	c2.78-0.32,4.72-2.28,4.82-5.16c0.12-3.6,0.07-7.21,0.05-10.81c0-0.22-0.35-0.63-0.56-0.64c-1.19-0.06-2.39-0.03-3.63-0.03
	c0,0.66,0,1.09,0,1.52c0,2.96,0.02,5.92-0.01,8.88c-0.02,2.12-1.09,3.2-2.87,3.04c-1.37-0.13-2.21-1.21-2.22-2.92
	C165,463.35,165.01,459.92,165.01,456.23z M189.74,460.82c0-1.02,0.08-1.99-0.04-2.94c-0.05-0.4-0.41-0.99-0.75-1.11
	c-2.72-0.93-5.52-1.27-8.25-0.18c-1.74,0.7-3.02,1.93-3.1,4.1c-0.09,2.35,0.54,4.16,2.92,4.92c1.39,0.45,2.84,0.76,4.19,1.3
	c0.52,0.21,1.2,0.91,1.19,1.36c-0.02,0.46-0.73,1.11-1.27,1.3c-2.04,0.7-3.85-0.09-5.59-1.14c-0.44-0.26-0.91-0.46-1.62-0.82
	c0,1.43-0.06,2.54,0.04,3.63c0.03,0.3,0.47,0.76,0.78,0.82c1.97,0.36,3.95,0.82,5.94,0.89c1.91,0.06,3.82-0.5,5.06-2.16
	c1.99-2.66,1.73-6.7-2.98-8c-1.09-0.3-2.23-0.5-3.27-0.91c-0.45-0.18-0.95-0.78-0.99-1.24c-0.04-0.36,0.51-1.01,0.92-1.15
	c0.73-0.25,1.6-0.41,2.32-0.23C186.64,459.6,188.02,460.21,189.74,460.82z M197.37,469.43c0-1.05,0.04-1.9-0.01-2.74
	c-0.05-0.86,0.2-1.26,1.12-1.2c1.01,0.07,2.02,0.02,3.03,0.01c2.45-0.01,2.14,0.34,2.21-2.28c0.02-0.83-0.28-1.04-1.02-1.02
	c-1.3,0.04-2.61-0.04-3.91,0.02c-0.95,0.05-1.47-0.11-1.45-1.29c0.03-1.06,0.33-1.43,1.39-1.36c1.38,0.1,2.78-0.03,4.16,0.04
	c1.06,0.06,1.47-0.34,1.35-1.4c-0.1-0.91,0.36-2.04-1.31-1.99c-2.82,0.09-5.64,0.07-8.46,0c-0.97-0.02-1.2,0.32-1.19,1.26
	c0.04,4.72,0.02,9.44,0.02,14.16c0,0.33,0.06,0.66,0.09,1c3.64,0,7.19,0,10.73,0c0-1.1,0-2.11,0-3.21
	C201.89,469.43,199.76,469.43,197.37,469.43z"/>
<path class="st1" d="M212.61,442.7c1.07-0.96,2.38-1.75,3.15-2.91c2.34-3.54,4.48-7.22,6.68-10.85c0.59-0.96,1.14-1.95,1.71-2.92
	c0.18,0.06,0.36,0.11,0.55,0.17c-0.14,0.85-0.1,1.81-0.46,2.55c-3.28,6.71-7.02,13.09-12.68,18.05c-0.6,0.52-1.29,0.96-1.98,1.35
	c-1.99,1.12-3.86,0.55-4.59-1.63c-0.56-1.68-0.86-3.48-1.03-5.25c-0.17-1.84-0.04-3.72-0.32-5.64c-0.56,1.38-1.09,2.77-1.68,4.14
	c-1.04,2.4-2.21,4.72-4.16,6.52c-3.18,2.92-7.36,2.56-10.06-0.83c-2.26-2.83-3.29-6.15-3.48-9.71c-0.7-12.96,4.73-22.99,14.52-30.8
	c2.26-1.8,4.83-3.1,7.8-3.31c1.52-0.11,2.86,0.22,3.8,1.51c2.18,2.98,4.45,5.89,6.45,8.99c1.32,2.06,1.16,4.32,0.4,6.76
	c-1.47,4.71-2.59,9.54-3.72,14.36c-0.58,2.49-0.89,5.04-1.29,7.57c-0.08,0.52-0.01,1.07-0.01,1.61
	C212.34,442.51,212.47,442.6,212.61,442.7z M193.63,437.43c0.35,1.64,0.52,2.96,0.94,4.19c0.37,1.08,1.37,1.52,2.35,0.91
	c0.85-0.54,1.78-1.29,2.16-2.18c1.17-2.68,2.23-5.43,3.09-8.22c1.81-5.86,3.45-11.78,5.18-17.67c0.67-2.29,1.42-4.55,2.05-6.85
	c0.37-1.36-0.24-1.96-1.62-1.7c-0.4,0.08-0.88,0.17-1.16,0.44c-1.26,1.17-2.63,2.27-3.64,3.64c-3.52,4.79-5.61,10.28-7.02,16.03
	C195.01,429.86,194.36,433.78,193.63,437.43z"/>
<path class="st1" d="M115.77,397.65c1.37-0.82,2.77-0.68,3.92,0.41c1.81,1.72,2.53,4.02,3.04,6.37c1.12,5.24,1.27,10.54,0.4,15.84
	c-1.12,6.88-2.73,13.66-5.59,20.02c-3.4,7.57-8.1,14.11-15.19,18.57c-2.74,1.73-5.72,2.76-8.98,2.29c-3.4-0.48-5.89-2.62-8.03-5.16
	c-3.01-3.58-4.44-7.88-5.25-12.46c-1.2-6.75-0.82-13.51-0.2-20.27c0.25-2.76,0.69-5.51,1.16-8.24c0.2-1.15,0.63-2.3,2.04-3.1
	c0,0.98,0.08,1.77-0.01,2.54c-0.42,3.53-1.15,7.04-1.27,10.57c-0.15,4.74,0.04,9.5,0.31,14.24c0.18,3.21,0.99,6.34,2.68,9.13
	c2.37,3.91,5.45,4.63,9.2,3.51c8.57-2.55,14.29-8.58,17.85-16.59c2.27-5.11,3.85-10.56,5.35-15.98c0.97-3.51,1.47-7.2,1.74-10.85
	c0.27-3.69-0.74-7.21-2.9-10.29C115.93,398.04,115.86,397.83,115.77,397.65z"/>
<path class="st1" d="M150.4,407.8c-0.46-0.43-0.86-0.92-1.35-1.25c-1.89-1.27-3.76-1.1-5.78,0.51c-2.24,1.78-3.73,4.16-5.03,6.67
	c-3.31,6.38-5.3,13.2-6.01,20.36c-0.25,2.48-0.04,5.05,0.28,7.54c0.4,3.06,2.66,4.34,5.43,3.12c1.63-0.72,3.1-1.83,4.64-2.78
	c0.34-0.21,0.65-0.49,1.06-0.8c0.43,1.41,0.31,2.34-0.92,3.26c-2.44,1.84-4.87,3.65-7.83,4.53c-4.54,1.35-8.08-0.09-10.27-4.34
	c-2.31-4.49-3.2-9.28-2.15-14.3c0.78-3.75,1.27-7.67,2.73-11.15c3.38-8.04,8.73-14.36,17.23-17.15c1.31-0.43,2.84-0.45,4.22-0.27
	C149.35,402.1,151.11,405.08,150.4,407.8z"/>
<path class="st0" d="M225.52,476.07c-4.94,0-9.51,0-14.19,0c0-7.47,0-14.91,0-22.47c4.6,0,9.2,0,14.27,0
	c-0.97,1.6-1.76,2.96-2.61,4.28c-1.18,1.82-2.41,3.6-3.6,5.41c-0.71,1.08-0.7,2.18,0.02,3.24c1.52,2.25,3.08,4.48,4.58,6.75
	C224.55,474.09,224.95,475.01,225.52,476.07z"/>
<path class="st1" d="M87.3,429.1c1.03,1.17,1.84,2.2,2.74,3.12c2.91,2.97,6.67,3.6,10.41,1.81c2.74-1.31,5.03-3.23,7.09-5.45
	c0.13-0.14,0.12-0.41,0.17-0.63c0.19,0.14,0.38,0.28,0.57,0.42c-0.96,2.35-1.87,4.71-2.88,7.03c-1.62,3.74-3.7,7.19-6.51,10.14
	c-1.59,1.67-3.44,2.83-5.82,2.97c-3.88,0.22-5.55-1.8-6.38-5c-0.89-3.42-0.63-6.88-0.09-10.32C86.82,431.9,87.05,430.61,87.3,429.1z
	"/>
<path class="st1" d="M134.26,391.22c-2.91-1.77-4.09-1.86-5.21-0.5c-1.03,1.26-0.99,4.13,0.08,5.29c1.07,1.17,2.76,0.98,4.98-0.55
	c0.41,2.91,0.33,2.78-2.34,3.32c-3.68,0.74-6.09-1.57-6.22-5.42c-0.13-4.01,2.81-6.58,7.36-5.35c0.95,0.26,1.57,0.74,1.36,1.89
	C134.21,390.26,134.26,390.65,134.26,391.22z"/>
<path class="st1" d="M142.52,398.75c-0.99-0.08-1.81-0.15-2.64-0.23c0-0.13,0.01-0.26,0.01-0.39c-0.37,0.17-0.75,0.35-1.12,0.52
	c-1.06,0.48-2.06,0.35-2.93-0.43c-0.87-0.78-0.87-1.81-0.62-2.85c0.27-1.11,1.21-1.49,2.15-1.72c0.84-0.21,1.72-0.26,2.6-0.39
	c-0.44-1.32-0.88-1.39-4.09-0.65c-0.37-1.82-0.36-1.86,1.32-2.15c0.57-0.1,1.17-0.16,1.75-0.14c2.66,0.1,3.76,1.05,3.6,3.74
	C142.45,395.54,142.52,397.04,142.52,398.75z M139.96,394.89c-1.04,0.12-2.18-0.05-2.36,1.26c-0.12,0.89,0.67,0.95,1.31,0.91
	C140.32,396.96,140.06,395.95,139.96,394.89z"/>
<path class="st1" d="M157.07,395.1c-1.68,0-3.39,0-5.11,0c0.15,2.13,1.83,2.46,4.91,1.11c0.4,2.03,0.31,2.26-1.58,2.55
	c-0.94,0.15-1.94,0.15-2.87-0.03c-1.61-0.31-2.76-1.3-3.04-3.02c-0.29-1.83-0.04-3.57,1.61-4.68c1.42-0.96,3-1.07,4.54-0.27
	C156.9,391.46,157.4,392.95,157.07,395.1z M154.69,393.58c-0.04-1.11-0.5-1.72-1.46-1.62c-0.85,0.09-1.43,0.59-1.34,1.62
	C152.82,393.58,153.69,393.58,154.69,393.58z"/>
<path class="st1" d="M147.11,398.62c-1.02,0-1.76,0-2.57,0c0-2.08,0-4.08,0-6.08c-0.12,0.04-0.23,0.09-0.35,0.13
	c-0.29-0.61-0.58-1.22-0.87-1.83c0.15,0,0.3,0,0.45,0c0.27-0.37,0.67-0.71,0.78-1.13c0.42-1.68,1.1-2.29,2.82-2.3
	c0.63,0,1.25,0,1.98,0c0,0.63,0,1.2,0,1.77c-2.11,0.06-2.11,0.06-2.4,1.26c0.62,0.05,1.22,0.09,1.88,0.14c0,0.54,0,1.03,0,1.6
	c-0.52,0.04-1.02,0.08-1.71,0.14C147.11,394.37,147.11,396.43,147.11,398.62z"/>
<path class="st1" d="M155.67,386.66c-2.07,3.18-1.93,2.93-3.33,2.71C152.7,386.96,153.51,386.27,155.67,386.66z"/>
<path class="st0" d="M146.23,464.31c0.38-1.19,0.71-2.41,1.16-3.58c0.49-1.27,1.63-1.58,2.79-1.54c1.12,0.03,1.93,0.71,2.44,1.74
	c1.36,2.72,1.02,6.29-0.79,8c-1.21,1.15-3,1.04-4.13-0.23C146.6,467.47,146.46,465.96,146.23,464.31z"/>
<g>
	<defs>
		<rect id="SVGID_1_" x="-2.86" y="-2.4" width="260.68" height="285.87"/>
	</defs>
	<clipPath id="SVGID_00000165942700981890482700000002570458414052188556_">
		<use xlink:href="#SVGID_1_"  style="overflow:visible;"/>
	</clipPath>
	
		<rect x="-2.86" y="291.47" style="clip-path:url(#SVGID_00000165942700981890482700000002570458414052188556_);fill:#3D1D18;" width="246.13" height="257.76"/>
	
		<rect x="273.15" y="-2.4" style="clip-path:url(#SVGID_00000165942700981890482700000002570458414052188556_);fill:#BF9363;" width="219.06" height="285.87"/>
	<path style="clip-path:url(#SVGID_00000165942700981890482700000002570458414052188556_);" d="M375.32,185.21
		c-0.28,0.65-0.41,1.42-0.87,1.94c-1.77,2.02-3.56,4.03-5.48,5.91c-2.9,2.83-6,5.46-9.72,7.31c-5.94,2.95-12.13,4.37-18.79,2.48
		c-5.9-1.67-9.95-5.4-12.75-10.43c-2.93-5.26-4.02-10.97-4.31-16.83c-0.3-6.11,0.31-12.18,1.3-18.22c0.84-5.09,1.56-10.2,2.32-15.3
		c0.05-0.33,0.01-0.66-0.22-1.08c-0.16,0.26-0.35,0.51-0.46,0.79c-4.53,10.77-9.05,21.53-13.57,32.3c-1.18,2.81-2.36,5.61-3.52,8.42
		c-0.28,0.67-0.61,1.01-1.49,0.89c-1.44-0.2-2.93-0.13-4.36-0.37c-2.77-0.45-3.73-1.78-3.36-4.41c0.55-3.81,1.09-7.62,1.68-11.42
		c0.84-5.47,1.72-10.93,2.6-16.39c0.76-4.76,1.55-9.51,2.31-14.26c0.09-0.57,0.08-1.16-0.09-1.82c-0.17,0.22-0.37,0.42-0.49,0.66
		c-2.97,6.22-5.99,12.42-8.88,18.68c-3.32,7.18-6.53,14.39-9.76,21.61c-1.04,2.33-1.97,4.71-2.96,7.07c-0.3,0.72-2,1.29-3.12,1.03
		c-0.97-0.23-1.25-0.96-1.06-1.74c0.39-1.55,0.74-3.15,1.42-4.6c3.1-6.69,6.24-13.37,9.47-20c5.32-10.91,10.73-21.78,16.09-32.67
		c0.88-1.79,1.65-3.63,2.54-5.42c0.15-0.31,0.64-0.67,0.98-0.68c2.86-0.08,5.7,0.16,8.44,1.02c2.16,0.68,2.66,1.49,2.12,3.6
		c-1.29,5.04-2.69,10.05-3.93,15.1c-1.1,4.5-2.09,9.03-3.06,13.56c-0.7,3.26-1.3,6.53-1.92,9.8c-0.19,0.99-0.33,1.98-0.26,3.06
		c0.47-0.93,0.99-1.84,1.39-2.79c4.18-10.07,8.36-20.13,12.5-30.22c1.7-4.13,3.29-8.3,4.98-12.44c0.13-0.32,0.63-0.7,0.97-0.71
		c3.06-0.01,6.1,0.23,8.98,1.3c1.94,0.72,2.14,1.32,1.6,3.2c-1.71,5.97-3.59,11.91-4.97,17.94c-1.21,5.31-1.82,10.75-2.73,16.13
		c-1.2,7.07-1.98,14.16-1.08,21.33c0.71,5.64,2.61,10.84,6.69,15.16c5.33,5.64,12.57,6.71,20.21,3.2c4.62-2.13,8.14-5.38,11.36-9.03
		c0.88-1,1.85-1.93,2.77-2.89C374.99,185.05,375.15,185.13,375.32,185.21z"/>
	<path style="clip-path:url(#SVGID_00000165942700981890482700000002570458414052188556_);" d="M419.54,155.09
		c0.49-0.64,0.98-1.27,1.46-1.92c2-2.72,4.12-5.34,7.17-7.1c2.22-1.28,4.51-1.57,6.81-0.16c1.37,0.84,1.93,2.17,2.15,3.6
		c0.38,2.51,0.16,5.04-0.67,7.42c-1.54,4.46-3.36,8.83-4.91,13.29c-0.92,2.64-1.58,5.36-2.26,8.06c-0.12,0.48,0.26,1.07,0.41,1.62
		c0.61-0.18,1.37-0.2,1.82-0.57c1.07-0.88,1.99-1.92,2.98-2.89c0.12-0.12,0.27-0.22,0.49-0.4c0.29,1.13,0.21,2-0.62,2.84
		c-2.25,2.28-4.44,4.61-7.61,5.81c-1.99,0.75-3.72,0.24-4.78-1.48c-1.75-2.84-1.86-5.9-1.52-9.03c0.53-4.9,2.45-9.39,4.7-13.77
		c1.47-2.86,3-5.69,4.49-8.53c0.14-0.27,0.26-0.55,0.34-0.83c0.29-1.02-0.2-1.63-1.27-1.33c-0.99,0.28-2.1,0.71-2.75,1.41
		c-1.9,2.04-3.8,4.12-5.34,6.4c-4.45,6.59-7.66,13.78-10.73,21.01c-0.69,1.62-1.18,3.32-1.68,5.01c-0.2,0.66-0.54,0.87-1.25,0.89
		c-3.85,0.12-6.3-2.06-6.5-5.81c-0.2-3.75,0.87-7.28,2.26-10.7c2.29-5.63,4.89-11.15,7.16-16.8c2.07-5.16,3.94-10.38,5.07-15.82
		c1.27-6.1,2.04-12.23,0.77-18.36c-1.21-5.85-3.76-11.11-9.5-14.38c-3.31-1.89-6.92-2.2-10.66-1.6c-1.12,0.18-2.22,0.48-3.37,0.74
		c0-0.69-0.06-1.35,0.03-1.99c0.04-0.27,0.33-0.62,0.6-0.72c7.41-2.85,14.83-3.56,22.08,0.37c5.13,2.77,8.04,7.19,9.75,12.39
		c1.63,4.97,1.79,10.08,1.41,15.23c-0.45,6.07-1.91,11.94-3.69,17.76c-1.03,3.38-2.02,6.78-3.02,10.17
		C419.4,154.97,419.47,155.03,419.54,155.09z"/>
	<path style="clip-path:url(#SVGID_00000165942700981890482700000002570458414052188556_);fill:#FFFFFF;" d="M357.09,208.15
		c2.72-1.67,5.39-3.09,7.78-4.84c2.83-2.08,5.5-4.38,8.1-6.72c2.06-1.85,3.92-3.9,5.87-5.87c0.19-0.19,0.45-0.38,0.51-0.61
		c0.46-1.57,1.68-1.64,3.13-1.64c25.18,0.04,50.35,0.05,75.53,0.06c1.67,0,1.67,0,1.67,1.52c0,5.59,0,11.17,0,16.76
		c0,0.41,0,0.82,0,1.33C425.53,208.15,391.43,208.15,357.09,208.15z M397.1,197.94c-0.01,0.07-0.02,0.25-0.04,0.44
		c-0.22,2.87,1.5,5.67,4.06,6.63c3.32,1.24,7.06,0.51,9.04-1.78c1.51-1.75,1.67-3.83,1.57-5.94c-0.29-6.64-7.09-7.89-11.24-5.79
		C397.89,192.83,397.01,195.13,397.1,197.94z M390.03,190.92c0,1.49-0.04,2.83,0.01,4.17c0.03,0.8-0.3,1.07-1.11,1.04
		c-0.95-0.04-1.91-0.05-2.86,0c-0.87,0.05-1.1-0.32-1.07-1.07c0.05-1.09-0.01-2.17,0.02-3.26c0.01-0.61-0.26-0.99-0.9-0.88
		c-1.02,0.18-2.21-0.55-3.07,0.48c-0.06,0.07-0.02,0.22-0.02,0.33c0,4.27-0.01,8.55,0.02,12.82c0,0.24,0.31,0.68,0.5,0.69
		c1.13,0.07,2.26,0.03,3.46,0.03c0-1.91,0.02-3.63-0.01-5.36c-0.01-0.67,0.25-0.96,0.97-0.94c0.91,0.03,1.84,0.07,2.74-0.01
		c1.05-0.09,1.39,0.25,1.34,1.25c-0.08,1.66-0.02,3.34-0.02,4.97c1.37,0,2.58,0,3.85,0c0-4.59,0.01-9.08-0.02-13.57
		c0-0.23-0.34-0.65-0.54-0.66C392.27,190.89,391.21,190.92,390.03,190.92z M418.64,190.9c-1.14,0-2.12,0.02-3.1-0.01
		c-0.74-0.02-0.94,0.29-0.94,0.95c0.03,2.85-0.04,5.69,0.04,8.54c0.03,1.3,0.29,2.56,1.39,3.56c1.97,1.8,4.36,1.76,6.79,1.5
		c2.62-0.28,4.46-1.99,4.55-4.5c0.12-3.14,0.06-6.29,0.04-9.43c0-0.2-0.33-0.55-0.53-0.56c-1.13-0.05-2.26-0.03-3.42-0.03
		c0,0.58,0,0.95,0,1.32c0,2.58,0.02,5.17-0.01,7.75c-0.02,1.85-1.03,2.79-2.71,2.65c-1.29-0.11-2.09-1.05-2.1-2.55
		C418.63,197.11,418.64,194.12,418.64,190.9z M441.99,194.9c0-0.89,0.07-1.74-0.03-2.56c-0.04-0.35-0.39-0.86-0.71-0.97
		c-2.57-0.81-5.22-1.11-7.79-0.15c-1.64,0.61-2.85,1.69-2.93,3.58c-0.09,2.05,0.51,3.63,2.76,4.29c1.32,0.39,2.68,0.66,3.96,1.13
		c0.49,0.18,1.14,0.8,1.12,1.19c-0.02,0.4-0.69,0.97-1.2,1.13c-1.92,0.61-3.64-0.08-5.28-1c-0.41-0.23-0.86-0.4-1.53-0.72
		c0,1.25-0.05,2.21,0.04,3.17c0.02,0.26,0.44,0.66,0.74,0.71c1.86,0.32,3.73,0.72,5.61,0.77c1.81,0.05,3.61-0.44,4.78-1.88
		c1.88-2.33,1.63-5.85-2.82-6.98c-1.03-0.26-2.1-0.43-3.09-0.8c-0.42-0.16-0.89-0.68-0.94-1.08c-0.04-0.32,0.48-0.88,0.87-1
		c0.69-0.21,1.51-0.36,2.19-0.2C439.07,193.84,440.37,194.37,441.99,194.9z M449.2,202.41c0-0.91,0.04-1.66-0.01-2.39
		c-0.05-0.75,0.19-1.1,1.06-1.05c0.95,0.06,1.91,0.02,2.86,0.01c2.31-0.01,2.03,0.3,2.09-1.99c0.02-0.73-0.27-0.91-0.97-0.89
		c-1.23,0.03-2.47-0.04-3.69,0.02c-0.9,0.04-1.39-0.1-1.36-1.12c0.03-0.92,0.31-1.25,1.31-1.18c1.31,0.08,2.62-0.03,3.93,0.04
		c1,0.05,1.39-0.3,1.28-1.23c-0.09-0.79,0.34-1.78-1.24-1.74c-2.66,0.08-5.32,0.06-7.99,0c-0.92-0.02-1.14,0.28-1.13,1.1
		c0.04,4.12,0.02,8.24,0.02,12.36c0,0.29,0.05,0.57,0.08,0.87c3.43,0,6.79,0,10.14,0c0-0.96,0-1.84,0-2.8
		C453.47,202.41,451.45,202.41,449.2,202.41z"/>
	<path style="clip-path:url(#SVGID_00000165942700981890482700000002570458414052188556_);fill:#FFFFFF;" d="M369.38,159.59
		c-2.19,1.4-4.37,2.15-6.66,2.51c-5.03,0.8-8.84-1.5-10.14-6.19c-1.23-4.45-0.25-8.68,1.85-12.71c1.71-3.29,4.36-5.94,6.7-8.81
		c3.35-4.11,6.82-8.14,9.92-12.41c3.97-5.47,5.73-11.66,4.54-18.22c-1.12-6.19-4.61-11-11.12-13.36c-3.84-1.39-9.03-0.09-11.81,2.8
		c-0.31,0.32-0.82,0.47-1.24,0.71c-0.26-0.47-0.71-0.92-0.75-1.41c-0.25-2.94,0.88-5.53,2.62-7.86c3.02-4.06,7.09-6.72,12.2-8.07
		c4.36-1.16,8.32-0.49,12.04,1.75c5.04,3.04,8.6,7.22,10.47,12.62c1.23,3.56,1.43,7.21,0.91,10.88c-0.9,6.43-3.81,12.12-7.5,17.5
		c-2.99,4.38-6.48,8.37-10.29,12.14c-3.47,3.43-6.93,6.88-9.37,11.09c-2.14,3.68-4.08,7.4-4.28,11.71c-0.23,4.83,2.76,6.42,7.35,6
		C366.26,160.12,367.68,159.84,369.38,159.59z"/>
	<path style="clip-path:url(#SVGID_00000165942700981890482700000002570458414052188556_);" d="M463.59,179.09
		c1.01-0.84,2.25-1.52,2.98-2.54c2.21-3.09,4.23-6.3,6.31-9.47c0.55-0.84,1.08-1.7,1.61-2.55c0.17,0.05,0.34,0.1,0.52,0.15
		c-0.14,0.75-0.09,1.58-0.43,2.22c-3.09,5.85-6.63,11.42-11.97,15.75c-0.57,0.46-1.22,0.84-1.87,1.18
		c-1.88,0.98-3.65,0.48-4.33-1.42c-0.53-1.46-0.82-3.04-0.97-4.58c-0.16-1.61-0.04-3.24-0.31-4.92c-0.53,1.2-1.03,2.42-1.59,3.61
		c-0.99,2.09-2.08,4.12-3.93,5.68c-3,2.54-6.95,2.24-9.51-0.73c-2.13-2.47-3.1-5.37-3.28-8.48c-0.66-11.31,4.46-20.06,13.71-26.88
		c2.13-1.57,4.56-2.7,7.36-2.89c1.44-0.1,2.7,0.19,3.59,1.32c2.06,2.6,4.21,5.14,6.09,7.85c1.25,1.79,1.1,3.77,0.38,5.9
		c-1.39,4.11-2.44,8.33-3.51,12.53c-0.55,2.17-0.84,4.4-1.22,6.61c-0.08,0.46-0.01,0.93-0.01,1.4
		C463.34,178.92,463.46,179,463.59,179.09z M445.66,174.49c0.33,1.43,0.49,2.59,0.89,3.66c0.35,0.94,1.3,1.33,2.22,0.79
		c0.8-0.47,1.68-1.13,2.04-1.9c1.1-2.34,2.1-4.74,2.92-7.18c1.71-5.12,3.26-10.28,4.89-15.42c0.63-2,1.34-3.97,1.94-5.97
		c0.35-1.19-0.23-1.71-1.53-1.48c-0.38,0.07-0.83,0.15-1.1,0.38c-1.19,1.02-2.49,1.98-3.44,3.17c-3.32,4.18-5.3,8.97-6.63,13.99
		C446.97,167.89,446.36,171.31,445.66,174.49z"/>
	<path style="clip-path:url(#SVGID_00000165942700981890482700000002570458414052188556_);" d="M372.14,139.78
		c1.3-0.72,2.62-0.6,3.71,0.36c1.71,1.5,2.39,3.51,2.87,5.56c1.06,4.57,1.2,9.2,0.38,13.82c-1.06,6.01-2.58,11.92-5.28,17.47
		c-3.21,6.6-7.65,12.32-14.35,16.21c-2.59,1.51-5.4,2.41-8.48,2c-3.21-0.42-5.56-2.29-7.58-4.5c-2.84-3.12-4.19-6.88-4.96-10.87
		c-1.13-5.89-0.78-11.79-0.19-17.68c0.24-2.41,0.65-4.81,1.1-7.19c0.19-1.01,0.6-2.01,1.92-2.7c0,0.85,0.07,1.54-0.01,2.22
		c-0.39,3.08-1.09,6.14-1.2,9.22c-0.15,4.14,0.03,8.29,0.29,12.43c0.17,2.8,0.94,5.53,2.53,7.97c2.24,3.41,5.15,4.04,8.69,3.06
		c8.09-2.22,13.5-7.48,16.86-14.48c2.14-4.45,3.64-9.22,5.05-13.94c0.92-3.06,1.39-6.28,1.64-9.46c0.25-3.22-0.7-6.29-2.74-8.98
		C372.28,140.13,372.22,139.94,372.14,139.78z"/>
	<path style="clip-path:url(#SVGID_00000165942700981890482700000002570458414052188556_);" d="M404.84,148.64
		c-0.43-0.37-0.81-0.8-1.28-1.09c-1.78-1.11-3.55-0.96-5.46,0.45c-2.11,1.55-3.53,3.63-4.75,5.82c-3.12,5.57-5.01,11.52-5.67,17.77
		c-0.23,2.17-0.04,4.41,0.27,6.58c0.37,2.67,2.51,3.79,5.13,2.73c1.54-0.62,2.93-1.59,4.38-2.42c0.33-0.19,0.61-0.43,1-0.7
		c0.41,1.23,0.29,2.04-0.87,2.85c-2.31,1.61-4.6,3.19-7.39,3.95c-4.29,1.18-7.63-0.08-9.7-3.79c-2.18-3.92-3.02-8.1-2.03-12.48
		c0.74-3.27,1.2-6.7,2.58-9.73c3.2-7.01,8.24-12.53,16.28-14.96c1.23-0.37,2.68-0.39,3.98-0.24
		C403.84,143.66,405.51,146.27,404.84,148.64z"/>
	<path style="clip-path:url(#SVGID_00000165942700981890482700000002570458414052188556_);fill:#FFFFFF;" d="M359.5,104.26
		c3.44,1.44,6.24,3.62,7.21,7.28c0.87,3.28-0.03,6.4-1.81,9.23c-1.08,1.72-2.46,3.29-3.84,4.83c-3.45,3.85-7.05,7.6-9.53,12.12
		c-2.48,4.51-3.28,9.24-1.9,14.22c0.11,0.4,0.2,0.8,0.27,1.21c0.03,0.17-0.02,0.36-0.05,0.63c-0.24-0.08-0.48-0.09-0.55-0.2
		c-2.98-4.79-4.97-9.78-3.4-15.46c0.99-3.6,3-6.7,5.16-9.76c2.14-3.04,4.37-6.06,6.16-9.28c1.75-3.17,3.2-6.55,2.99-10.26
		C360.12,107.3,359.75,105.81,359.5,104.26z"/>
	<path style="clip-path:url(#SVGID_00000165942700981890482700000002570458414052188556_);fill:#FFFFFF;" d="M475.79,208.2
		c-4.66,0-8.98,0-13.4,0c0-6.52,0-13.01,0-19.61c4.34,0,8.68,0,13.48,0c-0.92,1.4-1.66,2.58-2.46,3.73
		c-1.11,1.59-2.27,3.14-3.4,4.72c-0.67,0.94-0.66,1.9,0.02,2.83c1.44,1.97,2.91,3.91,4.33,5.89
		C474.86,206.48,475.25,207.28,475.79,208.2z"/>
	<path style="clip-path:url(#SVGID_00000165942700981890482700000002570458414052188556_);fill:#FFFFFF;" d="M345.25,167.22
		c0.97,1.02,1.74,1.92,2.59,2.72c2.74,2.59,6.3,3.14,9.83,1.58c2.59-1.14,4.75-2.82,6.69-4.76c0.12-0.12,0.11-0.36,0.16-0.55
		c0.18,0.12,0.36,0.24,0.54,0.36c-0.9,2.05-1.76,4.11-2.72,6.13c-1.53,3.26-3.5,6.28-6.15,8.85c-1.5,1.45-3.25,2.47-5.49,2.59
		c-3.67,0.19-5.24-1.57-6.03-4.36c-0.84-2.99-0.59-6-0.08-9C344.79,169.67,345.01,168.54,345.25,167.22z"/>
	<path style="clip-path:url(#SVGID_00000165942700981890482700000002570458414052188556_);" d="M389.6,134.17
		c-2.75-1.55-3.86-1.63-4.92-0.43c-0.97,1.1-0.93,3.6,0.08,4.62c1.01,1.02,2.61,0.85,4.71-0.48c0.39,2.54,0.31,2.42-2.21,2.89
		c-3.48,0.65-5.75-1.37-5.87-4.73c-0.12-3.49,2.65-5.74,6.95-4.67c0.89,0.22,1.48,0.64,1.28,1.65
		C389.55,133.34,389.6,133.68,389.6,134.17z"/>
	<path style="clip-path:url(#SVGID_00000165942700981890482700000002570458414052188556_);" d="M397.4,140.74
		c-0.93-0.07-1.71-0.14-2.5-0.2c0-0.11,0.01-0.23,0.01-0.34c-0.35,0.15-0.7,0.31-1.06,0.46c-1.01,0.42-1.95,0.3-2.77-0.37
		c-0.83-0.68-0.82-1.58-0.58-2.48c0.26-0.96,1.14-1.3,2.03-1.5c0.79-0.19,1.63-0.23,2.45-0.34c-0.41-1.16-0.83-1.21-3.86-0.57
		c-0.35-1.59-0.34-1.62,1.24-1.87c0.54-0.09,1.1-0.14,1.65-0.12c2.52,0.09,3.55,0.92,3.4,3.26
		C397.33,137.94,397.4,139.25,397.4,140.74z M394.98,137.37c-0.98,0.11-2.06-0.04-2.23,1.1c-0.12,0.77,0.63,0.83,1.24,0.79
		C395.32,139.18,395.08,138.3,394.98,137.37z"/>
	<path style="clip-path:url(#SVGID_00000165942700981890482700000002570458414052188556_);" d="M411.14,137.56c-1.59,0-3.2,0-4.82,0
		c0.15,1.86,1.72,2.15,4.64,0.97c0.37,1.77,0.29,1.97-1.49,2.23c-0.88,0.13-1.83,0.13-2.71-0.03c-1.52-0.27-2.61-1.14-2.87-2.64
		c-0.28-1.59-0.04-3.11,1.52-4.08c1.34-0.84,2.83-0.94,4.29-0.24C410.98,134.38,411.45,135.68,411.14,137.56z M408.89,136.23
		c-0.04-0.97-0.47-1.5-1.38-1.41c-0.8,0.07-1.35,0.52-1.27,1.41C407.13,136.23,407.95,136.23,408.89,136.23z"/>
	<path style="clip-path:url(#SVGID_00000165942700981890482700000002570458414052188556_);" d="M401.73,140.63
		c-0.96,0-1.66,0-2.43,0c0-1.82,0-3.56,0-5.31c-0.11,0.04-0.22,0.08-0.33,0.12c-0.27-0.53-0.55-1.06-0.82-1.59c0.14,0,0.28,0,0.42,0
		c0.25-0.33,0.64-0.62,0.73-0.99c0.39-1.47,1.04-2,2.66-2.01c0.59,0,1.19,0,1.87,0c0,0.55,0,1.05,0,1.55
		c-1.99,0.05-1.99,0.05-2.27,1.1c0.58,0.04,1.15,0.08,1.78,0.13c0,0.47,0,0.9,0,1.4c-0.5,0.04-0.96,0.07-1.62,0.12
		C401.73,136.92,401.73,138.72,401.73,140.63z"/>
	<path style="clip-path:url(#SVGID_00000165942700981890482700000002570458414052188556_);" d="M409.82,130.19
		c-1.96,2.78-1.82,2.56-3.15,2.36C407.01,130.45,407.77,129.85,409.82,130.19z"/>
	<path style="clip-path:url(#SVGID_00000165942700981890482700000002570458414052188556_);fill:#FFFFFF;" d="M400.9,197.95
		c0.36-1.04,0.67-2.1,1.09-3.12c0.46-1.11,1.54-1.37,2.64-1.34c1.06,0.03,1.82,0.62,2.31,1.52c1.29,2.37,0.96,5.48-0.74,6.98
		c-1.15,1.01-2.84,0.9-3.9-0.2C401.25,200.7,401.12,199.39,400.9,197.95z"/>
	<path style="clip-path:url(#SVGID_00000165942700981890482700000002570458414052188556_);fill:#3D1D18;" d="M129.01,153.94
		c-0.29,0.72-0.43,1.56-0.89,2.13c-1.82,2.22-3.66,4.43-5.64,6.49c-2.98,3.11-6.17,5.99-10.01,8.03c-6.11,3.24-12.49,4.8-19.35,2.73
		c-6.08-1.84-10.25-5.93-13.13-11.46c-3.02-5.78-4.14-12.04-4.43-18.48c-0.31-6.71,0.31-13.37,1.34-20
		c0.87-5.59,1.61-11.2,2.39-16.8c0.05-0.36,0.01-0.73-0.23-1.18c-0.16,0.29-0.36,0.56-0.48,0.86c-4.66,11.82-9.32,23.64-13.98,35.47
		c-1.21,3.08-2.43,6.16-3.62,9.25c-0.28,0.74-0.63,1.11-1.53,0.98c-1.49-0.22-3.02-0.15-4.49-0.4c-2.86-0.5-3.85-1.95-3.46-4.85
		c0.56-4.18,1.12-8.37,1.73-12.54c0.87-6,1.77-12,2.67-17.99c0.79-5.22,1.6-10.44,2.38-15.66c0.09-0.63,0.08-1.28-0.09-2
		c-0.17,0.24-0.39,0.46-0.5,0.73c-3.06,6.83-6.17,13.64-9.15,20.51c-3.41,7.88-6.73,15.8-10.05,23.72
		c-1.07,2.56-2.03,5.18-3.04,7.76c-0.31,0.79-2.06,1.42-3.21,1.13c-1-0.25-1.29-1.05-1.09-1.91c0.4-1.71,0.77-3.45,1.46-5.05
		c3.19-7.35,6.43-14.68,9.76-21.96c5.48-11.98,11.05-23.91,16.56-35.88c0.91-1.97,1.7-3.99,2.62-5.95c0.16-0.34,0.66-0.73,1.01-0.74
		c2.95-0.08,5.87,0.18,8.69,1.12c2.23,0.74,2.74,1.64,2.19,3.96c-1.33,5.53-2.77,11.03-4.04,16.58c-1.14,4.94-2.15,9.92-3.15,14.89
		c-0.72,3.57-1.34,7.17-1.98,10.76c-0.2,1.08-0.34,2.18-0.27,3.36c0.48-1.02,1.02-2.02,1.43-3.06c4.3-11.05,8.61-22.11,12.87-33.18
		c1.75-4.54,3.39-9.12,5.13-13.66c0.13-0.35,0.65-0.77,1-0.78c3.15-0.01,6.28,0.25,9.25,1.43c2,0.79,2.2,1.45,1.65,3.51
		c-1.76,6.55-3.7,13.07-5.12,19.7c-1.25,5.83-1.87,11.8-2.81,17.71c-1.23,7.77-2.04,15.55-1.11,23.42
		c0.73,6.19,2.69,11.9,6.89,16.64c5.49,6.2,12.95,7.37,20.81,3.51c4.75-2.33,8.38-5.91,11.7-9.91c0.91-1.09,1.9-2.11,2.85-3.17
		C128.67,153.76,128.84,153.85,129.01,153.94z"/>
	<path style="clip-path:url(#SVGID_00000165942700981890482700000002570458414052188556_);fill:#3D1D18;" d="M174.55,120.86
		c0.5-0.7,1.01-1.4,1.5-2.11c2.06-2.98,4.25-5.86,7.38-7.8c2.28-1.41,4.64-1.73,7.02-0.17c1.41,0.93,1.99,2.39,2.21,3.95
		c0.39,2.76,0.16,5.53-0.69,8.15c-1.59,4.9-3.46,9.7-5.06,14.59c-0.95,2.9-1.63,5.88-2.33,8.85c-0.12,0.53,0.27,1.18,0.43,1.77
		c0.63-0.2,1.41-0.22,1.87-0.63c1.1-0.97,2.05-2.11,3.06-3.17c0.13-0.13,0.28-0.24,0.5-0.44c0.3,1.25,0.22,2.19-0.64,3.12
		c-2.32,2.5-4.57,5.07-7.84,6.37c-2.05,0.82-3.83,0.26-4.93-1.62c-1.8-3.11-1.92-6.48-1.57-9.91c0.54-5.38,2.53-10.31,4.84-15.12
		c1.51-3.14,3.09-6.24,4.63-9.37c0.14-0.29,0.27-0.6,0.36-0.92c0.3-1.12-0.2-1.79-1.31-1.46c-1.02,0.3-2.16,0.78-2.84,1.55
		c-1.96,2.24-3.91,4.52-5.5,7.03c-4.58,7.24-7.89,15.13-11.05,23.07c-0.71,1.78-1.21,3.65-1.73,5.5c-0.21,0.73-0.56,0.96-1.29,0.98
		c-3.97,0.13-6.49-2.26-6.69-6.38c-0.2-4.11,0.9-8,2.33-11.75c2.35-6.19,5.04-12.25,7.37-18.44c2.13-5.66,4.05-11.39,5.22-17.38
		c1.31-6.7,2.1-13.43,0.8-20.16c-1.25-6.43-3.87-12.2-9.78-15.79c-3.41-2.07-7.13-2.41-10.98-1.76c-1.15,0.2-2.28,0.53-3.48,0.81
		c0-0.76-0.06-1.48,0.03-2.19c0.04-0.29,0.34-0.68,0.62-0.79c7.63-3.12,15.27-3.91,22.74,0.4c5.28,3.04,8.28,7.9,10.03,13.61
		c1.68,5.46,1.84,11.07,1.45,16.72c-0.46,6.66-1.97,13.11-3.8,19.5c-1.06,3.72-2.08,7.45-3.11,11.17
		C174.4,120.73,174.47,120.79,174.55,120.86z"/>
	<path style="clip-path:url(#SVGID_00000165942700981890482700000002570458414052188556_);fill:#BF9363;" d="M110.24,179.13
		c2.8-1.84,5.55-3.39,8.02-5.31c2.92-2.28,5.66-4.81,8.34-7.38c2.12-2.03,4.04-4.28,6.05-6.44c0.19-0.21,0.46-0.42,0.53-0.67
		c0.47-1.72,1.73-1.8,3.22-1.8c25.92,0.05,51.85,0.05,77.77,0.07c1.72,0,1.72,0,1.72,1.67c0,6.13,0,12.27,0,18.4
		c0,0.45,0,0.9,0,1.46C180.72,179.13,145.6,179.13,110.24,179.13z M151.44,167.91c-0.01,0.07-0.02,0.28-0.04,0.48
		c-0.22,3.16,1.54,6.22,4.18,7.27c3.42,1.36,7.27,0.56,9.31-1.96c1.55-1.92,1.72-4.2,1.62-6.52c-0.3-7.29-7.3-8.67-11.57-6.35
		C152.26,162.3,151.34,164.82,151.44,167.91z M144.16,160.21c0,1.64-0.04,3.11,0.01,4.58c0.03,0.87-0.31,1.18-1.15,1.14
		c-0.98-0.04-1.97-0.05-2.95,0c-0.89,0.05-1.13-0.35-1.1-1.17c0.05-1.19-0.01-2.39,0.02-3.58c0.01-0.67-0.27-1.09-0.93-0.97
		c-1.05,0.19-2.28-0.6-3.16,0.53c-0.06,0.08-0.02,0.24-0.02,0.36c0,4.69-0.01,9.38,0.03,14.07c0,0.26,0.32,0.74,0.52,0.75
		c1.16,0.07,2.33,0.04,3.56,0.04c0-2.1,0.02-3.99-0.01-5.88c-0.01-0.73,0.25-1.06,1-1.03c0.94,0.03,1.89,0.08,2.82-0.01
		c1.08-0.1,1.43,0.27,1.38,1.37c-0.09,1.83-0.02,3.66-0.02,5.46c1.42,0,2.66,0,3.97,0c0-5.04,0.01-9.97-0.02-14.9
		c0-0.26-0.35-0.71-0.56-0.73C146.46,160.17,145.37,160.21,144.16,160.21z M173.62,160.18c-1.17,0-2.19,0.03-3.2-0.01
		c-0.76-0.03-0.97,0.32-0.96,1.04c0.03,3.12-0.04,6.25,0.04,9.37c0.04,1.42,0.3,2.81,1.43,3.91c2.03,1.97,4.48,1.94,7,1.65
		c2.7-0.31,4.59-2.19,4.68-4.94c0.12-3.45,0.07-6.9,0.05-10.35c0-0.22-0.34-0.6-0.54-0.61c-1.16-0.06-2.32-0.03-3.53-0.03
		c0,0.63,0,1.04,0,1.45c0,2.84,0.02,5.67-0.01,8.51c-0.02,2.03-1.06,3.07-2.8,2.91c-1.33-0.12-2.15-1.16-2.16-2.8
		C173.61,167,173.62,163.71,173.62,160.18z M197.66,164.58c0-0.97,0.07-1.91-0.03-2.81c-0.05-0.39-0.4-0.95-0.73-1.06
		c-2.65-0.89-5.37-1.22-8.03-0.17c-1.69,0.67-2.93,1.85-3.02,3.93c-0.09,2.25,0.53,3.99,2.84,4.72c1.36,0.43,2.76,0.72,4.08,1.24
		c0.51,0.2,1.17,0.87,1.15,1.3c-0.02,0.44-0.71,1.07-1.23,1.24c-1.98,0.67-3.75-0.09-5.44-1.09c-0.42-0.25-0.88-0.44-1.58-0.79
		c0,1.37-0.06,2.43,0.04,3.48c0.03,0.29,0.46,0.73,0.76,0.78c1.92,0.35,3.84,0.79,5.78,0.85c1.86,0.06,3.72-0.48,4.92-2.07
		c1.93-2.55,1.68-6.42-2.9-7.67c-1.06-0.29-2.16-0.48-3.18-0.88c-0.43-0.17-0.92-0.75-0.97-1.19c-0.04-0.35,0.49-0.97,0.89-1.1
		c0.71-0.23,1.55-0.39,2.25-0.22C194.65,163.41,195.99,163.99,197.66,164.58z M205.09,172.82c0-1,0.04-1.82-0.01-2.63
		c-0.05-0.82,0.19-1.21,1.09-1.15c0.98,0.07,1.96,0.02,2.95,0.01c2.38-0.01,2.09,0.33,2.15-2.19c0.02-0.8-0.28-1-1-0.98
		c-1.27,0.04-2.54-0.04-3.8,0.02c-0.93,0.04-1.43-0.11-1.41-1.23c0.03-1.01,0.32-1.37,1.35-1.3c1.34,0.09,2.7-0.03,4.05,0.04
		c1.03,0.06,1.43-0.33,1.32-1.35c-0.1-0.87,0.35-1.96-1.28-1.91c-2.74,0.09-5.48,0.06-8.22,0c-0.95-0.02-1.17,0.31-1.16,1.21
		c0.04,4.52,0.02,9.05,0.02,13.57c0,0.31,0.05,0.63,0.09,0.96c3.54,0,6.99,0,10.44,0c0-1.06,0-2.02,0-3.08
		C209.48,172.82,207.41,172.82,205.09,172.82z"/>
	<path style="clip-path:url(#SVGID_00000165942700981890482700000002570458414052188556_);fill:#BF9363;" d="M122.9,125.81
		c-2.26,1.54-4.5,2.36-6.86,2.76c-5.18,0.88-9.1-1.65-10.44-6.79c-1.27-4.88-0.26-9.53,1.91-13.96c1.76-3.61,4.49-6.52,6.9-9.67
		c3.45-4.51,7.02-8.94,10.21-13.63c4.09-6,5.9-12.8,4.67-20.01c-1.16-6.8-4.75-12.08-11.45-14.67c-3.96-1.53-9.3-0.09-12.16,3.08
		c-0.32,0.35-0.85,0.52-1.28,0.78c-0.27-0.51-0.73-1.01-0.77-1.55c-0.25-3.22,0.91-6.07,2.7-8.64c3.11-4.46,7.3-7.38,12.57-8.87
		c4.49-1.27,8.57-0.54,12.39,1.92c5.19,3.34,8.86,7.93,10.78,13.86c1.27,3.91,1.47,7.91,0.94,11.94c-0.93,7.06-3.92,13.3-7.72,19.21
		c-3.08,4.81-6.68,9.19-10.6,13.33c-3.58,3.77-7.13,7.55-9.65,12.17c-2.2,4.04-4.2,8.13-4.41,12.86c-0.24,5.3,2.84,7.05,7.57,6.59
		C119.68,126.39,121.15,126.08,122.9,125.81z"/>
	<path style="clip-path:url(#SVGID_00000165942700981890482700000002570458414052188556_);fill:#3D1D18;" d="M219.91,147.21
		c1.04-0.92,2.32-1.67,3.07-2.79c2.28-3.39,4.35-6.92,6.5-10.39c0.57-0.92,1.11-1.87,1.66-2.8c0.18,0.05,0.35,0.11,0.53,0.16
		c-0.14,0.82-0.09,1.73-0.45,2.44c-3.18,6.43-6.83,12.54-12.33,17.3c-0.58,0.5-1.25,0.92-1.93,1.29c-1.94,1.08-3.75,0.53-4.46-1.56
		c-0.54-1.61-0.84-3.33-1-5.03c-0.17-1.77-0.04-3.56-0.32-5.4c-0.54,1.32-1.06,2.66-1.63,3.96c-1.01,2.3-2.15,4.52-4.05,6.24
		c-3.09,2.79-7.16,2.45-9.79-0.8c-2.19-2.71-3.2-5.9-3.38-9.31c-0.68-12.42,4.6-22.03,14.12-29.51c2.2-1.73,4.7-2.97,7.58-3.17
		c1.48-0.11,2.78,0.21,3.7,1.45c2.12,2.85,4.33,5.65,6.27,8.62c1.29,1.97,1.13,4.14,0.39,6.47c-1.43,4.51-2.52,9.14-3.61,13.75
		c-0.57,2.38-0.87,4.83-1.26,7.26c-0.08,0.5-0.01,1.03-0.01,1.54C219.65,147.03,219.78,147.12,219.91,147.21z M201.45,142.16
		c0.34,1.57,0.5,2.84,0.91,4.02c0.36,1.04,1.34,1.46,2.29,0.87c0.83-0.51,1.73-1.24,2.1-2.09c1.14-2.57,2.16-5.2,3-7.88
		c1.76-5.62,3.36-11.29,5.04-16.93c0.65-2.19,1.38-4.36,2-6.56c0.36-1.3-0.23-1.87-1.58-1.63c-0.39,0.07-0.85,0.17-1.13,0.42
		c-1.22,1.12-2.56,2.17-3.54,3.48c-3.42,4.59-5.46,9.85-6.83,15.36C202.79,134.92,202.16,138.67,201.45,142.16z"/>
	<path style="clip-path:url(#SVGID_00000165942700981890482700000002570458414052188556_);fill:#3D1D18;" d="M125.73,104.05
		c1.33-0.79,2.7-0.66,3.82,0.39c1.76,1.65,2.46,3.85,2.95,6.1c1.09,5.02,1.23,10.1,0.39,15.17c-1.09,6.6-2.66,13.08-5.44,19.18
		c-3.31,7.25-7.88,13.52-14.77,17.8c-2.67,1.65-5.56,2.64-8.73,2.2c-3.3-0.46-5.73-2.51-7.81-4.94c-2.93-3.43-4.32-7.55-5.11-11.93
		c-1.16-6.47-0.8-12.94-0.19-19.42c0.25-2.64,0.67-5.28,1.13-7.89c0.19-1.11,0.62-2.21,1.98-2.97c0,0.94,0.08,1.7-0.01,2.43
		c-0.41,3.38-1.12,6.74-1.23,10.13c-0.15,4.54,0.04,9.11,0.3,13.65c0.18,3.08,0.97,6.07,2.61,8.75c2.3,3.75,5.3,4.43,8.95,3.36
		c8.33-2.44,13.9-8.22,17.36-15.9c2.21-4.89,3.75-10.12,5.2-15.31c0.94-3.36,1.43-6.9,1.69-10.39c0.26-3.54-0.72-6.91-2.82-9.86
		C125.88,104.43,125.82,104.23,125.73,104.05z"/>
	<path style="clip-path:url(#SVGID_00000165942700981890482700000002570458414052188556_);fill:#3D1D18;" d="M159.41,113.78
		c-0.44-0.41-0.83-0.88-1.32-1.2c-1.83-1.22-3.65-1.05-5.62,0.49c-2.18,1.7-3.63,3.99-4.89,6.39c-3.21,6.11-5.16,12.65-5.84,19.51
		c-0.24,2.38-0.04,4.84,0.27,7.22c0.38,2.93,2.58,4.16,5.28,2.99c1.59-0.69,3.02-1.75,4.51-2.66c0.33-0.2,0.63-0.47,1.03-0.77
		c0.42,1.35,0.3,2.24-0.89,3.12c-2.38,1.76-4.74,3.5-7.61,4.34c-4.41,1.29-7.86-0.08-9.98-4.16c-2.24-4.3-3.11-8.89-2.09-13.7
		c0.76-3.59,1.23-7.35,2.65-10.68c3.29-7.7,8.49-13.76,16.76-16.43c1.27-0.41,2.76-0.43,4.1-0.26
		C158.39,108.32,160.1,111.17,159.41,113.78z"/>
	<path style="clip-path:url(#SVGID_00000165942700981890482700000002570458414052188556_);fill:#BF9363;" d="M112.72,65.05
		c3.54,1.58,6.42,3.97,7.43,8c0.9,3.61-0.04,7.03-1.86,10.13c-1.11,1.89-2.53,3.61-3.95,5.3c-3.56,4.23-7.25,8.34-9.81,13.3
		c-2.56,4.96-3.38,10.15-1.96,15.62c0.11,0.44,0.21,0.88,0.28,1.33c0.03,0.19-0.02,0.4-0.05,0.69c-0.24-0.09-0.5-0.1-0.57-0.22
		c-3.07-5.26-5.11-10.74-3.5-16.98c1.02-3.95,3.09-7.36,5.31-10.72c2.21-3.34,4.5-6.65,6.34-10.19c1.81-3.48,3.3-7.19,3.08-11.26
		C113.36,68.39,112.98,66.75,112.72,65.05z"/>
	<path style="clip-path:url(#SVGID_00000165942700981890482700000002570458414052188556_);fill:#BF9363;" d="M232.47,179.18
		c-4.8,0-9.25,0-13.8,0c0-7.16,0-14.29,0-21.53c4.47,0,8.94,0,13.88,0c-0.95,1.53-1.71,2.84-2.54,4.1c-1.14,1.74-2.34,3.45-3.5,5.18
		c-0.69,1.03-0.68,2.09,0.02,3.11c1.48,2.16,3,4.29,4.46,6.47C231.52,177.29,231.91,178.17,232.47,179.18z"/>
	<path style="clip-path:url(#SVGID_00000165942700981890482700000002570458414052188556_);fill:#BF9363;" d="M98.05,134.19
		c1,1.12,1.79,2.1,2.67,2.99c2.83,2.84,6.49,3.45,10.13,1.74c2.67-1.25,4.89-3.09,6.89-5.22c0.13-0.13,0.12-0.4,0.17-0.6
		c0.18,0.13,0.37,0.27,0.55,0.4c-0.93,2.25-1.82,4.51-2.8,6.74c-1.58,3.58-3.6,6.89-6.33,9.71c-1.55,1.6-3.35,2.71-5.66,2.84
		c-3.78,0.21-5.4-1.72-6.21-4.79c-0.87-3.28-0.61-6.59-0.08-9.89C97.58,136.87,97.8,135.64,98.05,134.19z"/>
	<path style="clip-path:url(#SVGID_00000165942700981890482700000002570458414052188556_);fill:#3D1D18;" d="M143.72,97.89
		c-2.83-1.7-3.98-1.78-5.07-0.48c-1,1.2-0.96,3.95,0.08,5.07c1.04,1.12,2.69,0.94,4.84-0.52c0.4,2.79,0.32,2.66-2.27,3.18
		c-3.58,0.71-5.92-1.51-6.05-5.2c-0.13-3.84,2.73-6.3,7.15-5.13c0.92,0.24,1.53,0.71,1.32,1.81
		C143.66,96.98,143.72,97.35,143.72,97.89z"/>
	<path style="clip-path:url(#SVGID_00000165942700981890482700000002570458414052188556_);fill:#3D1D18;" d="M151.75,105.1
		c-0.96-0.08-1.77-0.15-2.57-0.22c0-0.12,0.01-0.25,0.01-0.37c-0.36,0.17-0.73,0.34-1.09,0.5c-1.04,0.46-2,0.33-2.85-0.41
		c-0.85-0.75-0.85-1.74-0.6-2.73c0.27-1.06,1.18-1.42,2.09-1.65c0.82-0.21,1.68-0.25,2.53-0.37c-0.42-1.27-0.86-1.33-3.98-0.63
		c-0.36-1.75-0.35-1.78,1.28-2.06c0.56-0.09,1.14-0.16,1.7-0.14c2.59,0.1,3.66,1.01,3.5,3.58
		C151.68,102.03,151.75,103.47,151.75,105.1z M149.26,101.41c-1.01,0.12-2.12-0.05-2.3,1.21c-0.12,0.85,0.65,0.91,1.27,0.87
		C149.6,103.4,149.36,102.43,149.26,101.41z"/>
	<path style="clip-path:url(#SVGID_00000165942700981890482700000002570458414052188556_);fill:#3D1D18;" d="M165.9,101.61
		c-1.64,0-3.3,0-4.96,0c0.15,2.04,1.78,2.36,4.78,1.06c0.39,1.94,0.3,2.16-1.53,2.44c-0.91,0.14-1.89,0.14-2.79-0.03
		c-1.57-0.29-2.68-1.25-2.95-2.89c-0.29-1.75-0.04-3.42,1.56-4.48c1.38-0.92,2.92-1.03,4.42-0.26
		C165.73,98.13,166.22,99.55,165.9,101.61z M163.58,100.15c-0.04-1.07-0.48-1.64-1.42-1.55c-0.82,0.08-1.39,0.57-1.3,1.55
		C161.77,100.15,162.61,100.15,163.58,100.15z"/>
	<path style="clip-path:url(#SVGID_00000165942700981890482700000002570458414052188556_);fill:#3D1D18;" d="M156.21,104.98
		c-0.99,0-1.71,0-2.5,0c0-1.99,0-3.91,0-5.83c-0.11,0.04-0.23,0.09-0.34,0.13c-0.28-0.58-0.56-1.17-0.85-1.75c0.14,0,0.29,0,0.43,0
		c0.26-0.36,0.65-0.68,0.75-1.08c0.41-1.61,1.07-2.19,2.74-2.2c0.61,0,1.22,0,1.93,0c0,0.61,0,1.15,0,1.7
		c-2.05,0.06-2.05,0.06-2.34,1.21c0.6,0.05,1.18,0.09,1.83,0.14c0,0.52,0,0.99,0,1.53c-0.51,0.04-0.99,0.08-1.66,0.13
		C156.21,100.92,156.21,102.89,156.21,104.98z"/>
	<path style="clip-path:url(#SVGID_00000165942700981890482700000002570458414052188556_);fill:#3D1D18;" d="M164.54,93.52
		c-2.02,3.05-1.88,2.81-3.24,2.59C161.64,93.81,162.43,93.15,164.54,93.52z"/>
	<path style="clip-path:url(#SVGID_00000165942700981890482700000002570458414052188556_);fill:#BF9363;" d="M155.35,167.92
		c0.37-1.14,0.69-2.31,1.13-3.43c0.47-1.22,1.58-1.51,2.72-1.48c1.09,0.03,1.87,0.68,2.38,1.67c1.33,2.61,0.99,6.02-0.77,7.67
		c-1.18,1.11-2.92,0.99-4.01-0.22C155.72,170.94,155.58,169.5,155.35,167.92z"/>
	<path style="clip-path:url(#SVGID_00000165942700981890482700000002570458414052188556_);fill:#BF9363;" d="M119.14,449.72
		c-0.3,0.75-0.44,1.63-0.92,2.22c-1.87,2.31-3.76,4.62-5.8,6.78c-3.07,3.24-6.35,6.25-10.29,8.38c-6.29,3.38-12.84,5.01-19.89,2.85
		c-6.25-1.92-10.54-6.18-13.5-11.96c-3.1-6.03-4.26-12.57-4.56-19.29c-0.31-7.01,0.32-13.95,1.38-20.88
		c0.89-5.83,1.65-11.69,2.46-17.53c0.05-0.37,0.01-0.76-0.24-1.24c-0.17,0.3-0.37,0.59-0.49,0.9c-4.8,12.34-9.59,24.68-14.37,37.02
		c-1.25,3.22-2.5,6.43-3.72,9.65c-0.29,0.77-0.65,1.16-1.57,1.02c-1.53-0.23-3.1-0.15-4.62-0.42c-2.94-0.52-3.95-2.04-3.55-5.06
		c0.58-4.37,1.15-8.73,1.78-13.09c0.89-6.26,1.82-12.52,2.75-18.78c0.81-5.45,1.64-10.9,2.45-16.35c0.1-0.66,0.08-1.33-0.09-2.09
		c-0.17,0.25-0.4,0.48-0.52,0.76c-3.15,7.13-6.35,14.24-9.41,21.4c-3.51,8.22-6.92,16.49-10.33,24.76c-1.1,2.68-2.09,5.4-3.13,8.1
		c-0.32,0.82-2.11,1.48-3.3,1.18c-1.03-0.26-1.33-1.1-1.12-1.99c0.41-1.78,0.79-3.61,1.5-5.27c3.28-7.67,6.61-15.32,10.03-22.92
		c5.63-12.5,11.36-24.96,17.03-37.45c0.93-2.05,1.75-4.16,2.69-6.21c0.16-0.36,0.68-0.76,1.04-0.77c3.03-0.09,6.04,0.18,8.94,1.17
		c2.29,0.78,2.82,1.71,2.25,4.13c-1.37,5.77-2.85,11.52-4.16,17.3c-1.17,5.16-2.21,10.35-3.24,15.54
		c-0.74,3.73-1.37,7.48-2.04,11.23c-0.2,1.13-0.35,2.27-0.28,3.5c0.49-1.06,1.05-2.1,1.47-3.2c4.43-11.54,8.85-23.07,13.23-34.63
		c1.8-4.74,3.48-9.52,5.27-14.26c0.14-0.36,0.67-0.81,1.02-0.81c3.24-0.01,6.46,0.26,9.51,1.49c2.06,0.82,2.27,1.51,1.7,3.66
		c-1.81,6.84-3.8,13.64-5.26,20.56c-1.28,6.09-1.93,12.32-2.89,18.48c-1.27,8.11-2.1,16.23-1.15,24.44
		c0.75,6.46,2.76,12.42,7.08,17.37c5.65,6.47,13.31,7.69,21.4,3.66c4.89-2.44,8.62-6.17,12.03-10.34c0.93-1.14,1.95-2.21,2.93-3.31
		C118.79,449.53,118.97,449.63,119.14,449.72z"/>
	<path style="clip-path:url(#SVGID_00000165942700981890482700000002570458414052188556_);fill:#FFFFFF;" d="M165.96,415.19
		c0.51-0.73,1.04-1.46,1.54-2.2c2.12-3.11,4.37-6.12,7.59-8.14c2.35-1.47,4.77-1.8,7.21-0.18c1.45,0.97,2.04,2.49,2.27,4.12
		c0.4,2.88,0.17,5.77-0.71,8.51c-1.63,5.11-3.56,10.12-5.2,15.23c-0.97,3.02-1.68,6.14-2.39,9.24c-0.13,0.55,0.28,1.23,0.44,1.85
		c0.65-0.21,1.45-0.23,1.92-0.65c1.13-1.01,2.11-2.2,3.15-3.31c0.13-0.14,0.28-0.26,0.51-0.46c0.31,1.3,0.22,2.29-0.66,3.25
		c-2.39,2.61-4.7,5.29-8.06,6.65c-2.11,0.86-3.94,0.27-5.07-1.69c-1.86-3.25-1.97-6.76-1.61-10.35c0.56-5.62,2.6-10.76,4.98-15.78
		c1.56-3.27,3.17-6.52,4.76-9.78c0.15-0.31,0.28-0.63,0.37-0.96c0.31-1.17-0.21-1.87-1.35-1.52c-1.05,0.32-2.22,0.81-2.92,1.62
		c-2.01,2.33-4.02,4.72-5.66,7.33c-4.71,7.56-8.11,15.79-11.37,24.08c-0.73,1.86-1.25,3.81-1.78,5.74c-0.21,0.76-0.57,1-1.32,1.02
		c-4.08,0.13-6.67-2.36-6.88-6.66c-0.21-4.29,0.93-8.35,2.4-12.27c2.42-6.46,5.18-12.78,7.58-19.25c2.19-5.91,4.17-11.89,5.37-18.14
		c1.35-7,2.16-14.01,0.82-21.04c-1.28-6.71-3.98-12.73-10.06-16.48c-3.51-2.16-7.33-2.52-11.29-1.83c-1.19,0.21-2.35,0.55-3.57,0.85
		c0-0.79-0.06-1.55,0.03-2.28c0.04-0.31,0.35-0.71,0.64-0.83c7.85-3.26,15.7-4.08,23.38,0.42c5.43,3.18,8.52,8.25,10.32,14.2
		c1.72,5.7,1.9,11.55,1.49,17.46c-0.47,6.95-2.03,13.68-3.91,20.35c-1.09,3.88-2.13,7.77-3.2,11.66
		C165.81,415.05,165.89,415.12,165.96,415.19z"/>
	<path style="clip-path:url(#SVGID_00000165942700981890482700000002570458414052188556_);fill:#BF9363;" d="M112.86,420.35
		c-2.32,1.6-4.63,2.46-7.05,2.88c-5.33,0.92-9.36-1.72-10.73-7.09c-1.3-5.1-0.26-9.94,1.96-14.57c1.81-3.77,4.62-6.81,7.1-10.09
		c3.55-4.71,7.22-9.33,10.5-14.23c4.2-6.27,6.06-13.36,4.8-20.88c-1.19-7.1-4.88-12.61-11.77-15.31c-4.07-1.59-9.56-0.1-12.5,3.21
		c-0.33,0.37-0.87,0.54-1.31,0.81c-0.28-0.54-0.75-1.06-0.8-1.61c-0.26-3.37,0.94-6.34,2.78-9.01c3.2-4.65,7.51-7.7,12.92-9.25
		c4.61-1.33,8.81-0.57,12.75,2c5.34,3.49,9.11,8.27,11.09,14.46c1.3,4.08,1.52,8.26,0.97,12.47c-0.96,7.37-4.04,13.89-7.94,20.06
		c-3.17,5.02-6.87,9.6-10.9,13.91c-3.68,3.93-7.34,7.88-9.93,12.71c-2.26,4.22-4.32,8.49-4.54,13.42c-0.25,5.53,2.92,7.36,7.78,6.88
		C109.55,420.96,111.05,420.64,112.86,420.35z"/>
	<path style="clip-path:url(#SVGID_00000165942700981890482700000002570458414052188556_);fill:#BF9363;" d="M102.39,356.94
		c3.64,1.65,6.6,4.14,7.64,8.35c0.92,3.76-0.04,7.33-1.91,10.57c-1.14,1.97-2.61,3.77-4.06,5.53c-3.66,4.41-7.46,8.71-10.09,13.89
		c-2.63,5.17-3.47,10.59-2.02,16.3c0.12,0.46,0.21,0.92,0.29,1.38c0.03,0.2-0.02,0.41-0.05,0.72c-0.25-0.09-0.51-0.11-0.59-0.23
		c-3.16-5.49-5.26-11.21-3.6-17.72c1.05-4.12,3.18-7.68,5.46-11.18c2.27-3.49,4.63-6.94,6.52-10.64c1.86-3.63,3.39-7.5,3.17-11.75
		C103.05,360.42,102.65,358.72,102.39,356.94z"/>
</g>
</svg>
