<?xml version="1.0" encoding="utf-8"?>
<!-- Generator: Adobe Illustrator 26.0.1, SVG Export Plug-In . SVG Version: 6.00 Build 0)  -->
<svg version="1.1" id="Layer_1" xmlns="http://www.w3.org/2000/svg" xmlns:xlink="http://www.w3.org/1999/xlink" x="0px" y="0px"
	 viewBox="0 0 257.83 283.46" style="enable-background:new 0 0 257.83 283.46;" xml:space="preserve">
<style type="text/css">
	.st0{fill:#3D1D18;}
	.st1{fill:#BF9363;}
	.st2{fill:#FFFFFF;}
</style>
<path class="st0" d="M129.01,153.94c-0.29,0.72-0.43,1.56-0.89,2.13c-1.82,2.22-3.66,4.43-5.64,6.49
	c-2.98,3.11-6.17,5.99-10.01,8.03c-6.11,3.24-12.49,4.8-19.35,2.73c-6.08-1.84-10.25-5.93-13.13-11.46
	c-3.02-5.78-4.14-12.04-4.43-18.48c-0.31-6.71,0.31-13.37,1.34-20c0.87-5.59,1.61-11.2,2.39-16.8c0.05-0.36,0.01-0.73-0.23-1.18
	c-0.16,0.29-0.36,0.56-0.48,0.86c-4.66,11.82-9.32,23.64-13.98,35.47c-1.21,3.08-2.43,6.16-3.62,9.25
	c-0.28,0.74-0.63,1.11-1.53,0.98c-1.49-0.22-3.02-0.15-4.49-0.4c-2.86-0.5-3.85-1.95-3.46-4.85c0.56-4.18,1.12-8.37,1.73-12.54
	c0.87-6,1.77-12,2.67-17.99c0.79-5.22,1.6-10.44,2.38-15.66c0.09-0.63,0.08-1.28-0.09-2c-0.17,0.24-0.39,0.46-0.5,0.73
	c-3.06,6.83-6.17,13.64-9.15,20.51c-3.41,7.88-6.73,15.8-10.05,23.72c-1.07,2.56-2.03,5.18-3.04,7.76
	c-0.31,0.79-2.06,1.42-3.21,1.13c-1-0.25-1.29-1.05-1.09-1.91c0.4-1.71,0.77-3.45,1.46-5.05c3.19-7.35,6.43-14.68,9.76-21.96
	c5.48-11.98,11.05-23.91,16.56-35.88c0.91-1.97,1.7-3.99,2.62-5.95c0.16-0.34,0.66-0.73,1.01-0.74c2.95-0.08,5.87,0.18,8.69,1.12
	c2.23,0.74,2.74,1.64,2.19,3.96c-1.33,5.53-2.77,11.03-4.04,16.58c-1.14,4.94-2.15,9.92-3.15,14.89c-0.72,3.57-1.34,7.17-1.98,10.76
	c-0.2,1.08-0.34,2.18-0.27,3.36c0.48-1.02,1.02-2.02,1.43-3.06c4.3-11.05,8.61-22.11,12.87-33.18c1.75-4.54,3.39-9.12,5.13-13.66
	c0.13-0.35,0.65-0.77,1-0.78c3.15-0.01,6.28,0.25,9.25,1.43c2,0.79,2.2,1.45,1.65,3.51c-1.76,6.55-3.7,13.07-5.12,19.7
	c-1.25,5.83-1.87,11.8-2.81,17.71c-1.23,7.77-2.04,15.55-1.11,23.42c0.73,6.19,2.69,11.9,6.89,16.64c5.49,6.2,12.95,7.37,20.81,3.51
	c4.75-2.33,8.38-5.91,11.7-9.91c0.91-1.09,1.9-2.11,2.85-3.17C128.67,153.76,128.84,153.85,129.01,153.94z"/>
<path class="st0" d="M174.55,120.86c0.5-0.7,1.01-1.4,1.5-2.11c2.06-2.98,4.25-5.86,7.38-7.8c2.28-1.41,4.64-1.73,7.02-0.17
	c1.41,0.93,1.99,2.39,2.21,3.95c0.39,2.76,0.16,5.53-0.69,8.15c-1.59,4.9-3.46,9.7-5.06,14.59c-0.95,2.9-1.63,5.88-2.33,8.85
	c-0.12,0.53,0.27,1.18,0.43,1.77c0.63-0.2,1.41-0.22,1.87-0.63c1.1-0.97,2.05-2.11,3.06-3.17c0.13-0.13,0.28-0.24,0.5-0.44
	c0.3,1.25,0.22,2.19-0.64,3.12c-2.32,2.5-4.57,5.07-7.84,6.37c-2.05,0.82-3.83,0.26-4.93-1.62c-1.8-3.11-1.92-6.48-1.57-9.91
	c0.54-5.38,2.53-10.31,4.84-15.12c1.51-3.14,3.09-6.24,4.63-9.37c0.14-0.29,0.27-0.6,0.36-0.92c0.3-1.12-0.2-1.79-1.31-1.46
	c-1.02,0.3-2.16,0.78-2.84,1.55c-1.96,2.24-3.91,4.52-5.5,7.03c-4.58,7.24-7.89,15.13-11.05,23.07c-0.71,1.78-1.21,3.65-1.73,5.5
	c-0.21,0.73-0.56,0.96-1.29,0.98c-3.97,0.13-6.49-2.26-6.69-6.38c-0.2-4.11,0.9-8,2.33-11.75c2.35-6.19,5.04-12.25,7.37-18.44
	c2.13-5.66,4.05-11.39,5.22-17.38c1.31-6.7,2.1-13.43,0.8-20.16c-1.25-6.43-3.87-12.2-9.78-15.79c-3.41-2.07-7.13-2.41-10.98-1.76
	c-1.15,0.2-2.28,0.53-3.48,0.81c0-0.76-0.06-1.48,0.03-2.19c0.04-0.29,0.34-0.68,0.62-0.79c7.63-3.12,15.27-3.91,22.74,0.4
	c5.28,3.04,8.28,7.9,10.03,13.61c1.68,5.46,1.84,11.07,1.45,16.72c-0.46,6.66-1.97,13.11-3.8,19.5c-1.06,3.72-2.08,7.45-3.11,11.17
	C174.4,120.73,174.47,120.79,174.55,120.86z"/>
<path class="st1" d="M110.24,179.13c2.8-1.84,5.55-3.39,8.02-5.31c2.92-2.28,5.66-4.81,8.34-7.38c2.12-2.03,4.04-4.28,6.05-6.44
	c0.19-0.21,0.46-0.42,0.53-0.67c0.47-1.72,1.73-1.8,3.22-1.8c25.92,0.05,51.85,0.05,77.77,0.07c1.72,0,1.72,0,1.72,1.67
	c0,6.13,0,12.27,0,18.4c0,0.45,0,0.9,0,1.46C180.72,179.13,145.6,179.13,110.24,179.13z M151.44,167.91
	c-0.01,0.07-0.02,0.28-0.04,0.48c-0.22,3.16,1.54,6.22,4.18,7.27c3.42,1.36,7.27,0.56,9.31-1.96c1.55-1.92,1.72-4.2,1.62-6.52
	c-0.3-7.29-7.3-8.67-11.57-6.35C152.26,162.3,151.34,164.82,151.44,167.91z M144.16,160.21c0,1.64-0.04,3.11,0.01,4.58
	c0.03,0.87-0.31,1.18-1.15,1.14c-0.98-0.04-1.97-0.05-2.95,0c-0.89,0.05-1.13-0.35-1.1-1.17c0.05-1.19-0.01-2.39,0.02-3.58
	c0.01-0.67-0.27-1.09-0.93-0.97c-1.05,0.19-2.28-0.6-3.16,0.53c-0.06,0.08-0.02,0.24-0.02,0.36c0,4.69-0.01,9.38,0.03,14.07
	c0,0.26,0.32,0.74,0.52,0.75c1.16,0.07,2.33,0.04,3.56,0.04c0-2.1,0.02-3.99-0.01-5.88c-0.01-0.73,0.25-1.06,1-1.03
	c0.94,0.03,1.89,0.08,2.82-0.01c1.08-0.1,1.43,0.27,1.38,1.37c-0.09,1.83-0.02,3.66-0.02,5.46c1.42,0,2.66,0,3.97,0
	c0-5.04,0.01-9.97-0.02-14.9c0-0.26-0.35-0.71-0.56-0.73C146.46,160.17,145.37,160.21,144.16,160.21z M173.62,160.18
	c-1.17,0-2.19,0.03-3.2-0.01c-0.76-0.03-0.97,0.32-0.96,1.04c0.03,3.12-0.04,6.25,0.04,9.37c0.04,1.42,0.3,2.81,1.43,3.91
	c2.03,1.97,4.48,1.94,7,1.65c2.7-0.31,4.59-2.19,4.68-4.94c0.12-3.45,0.07-6.9,0.05-10.35c0-0.22-0.34-0.6-0.54-0.61
	c-1.16-0.06-2.32-0.03-3.53-0.03c0,0.63,0,1.04,0,1.45c0,2.84,0.02,5.67-0.01,8.51c-0.02,2.03-1.06,3.07-2.8,2.91
	c-1.33-0.12-2.15-1.16-2.16-2.8C173.61,167,173.62,163.71,173.62,160.18z M197.66,164.58c0-0.97,0.07-1.91-0.03-2.81
	c-0.05-0.39-0.4-0.95-0.73-1.06c-2.65-0.89-5.37-1.22-8.03-0.17c-1.69,0.67-2.93,1.85-3.02,3.93c-0.09,2.25,0.53,3.99,2.84,4.72
	c1.36,0.43,2.76,0.72,4.08,1.24c0.51,0.2,1.17,0.87,1.15,1.3c-0.02,0.44-0.71,1.07-1.23,1.24c-1.98,0.67-3.75-0.09-5.44-1.09
	c-0.42-0.25-0.88-0.44-1.58-0.79c0,1.37-0.06,2.43,0.04,3.48c0.03,0.29,0.46,0.73,0.76,0.78c1.92,0.35,3.84,0.79,5.78,0.85
	c1.86,0.06,3.72-0.48,4.92-2.07c1.93-2.55,1.68-6.42-2.9-7.67c-1.06-0.29-2.16-0.48-3.18-0.88c-0.43-0.17-0.92-0.75-0.97-1.19
	c-0.04-0.35,0.49-0.97,0.89-1.1c0.71-0.23,1.55-0.39,2.25-0.22C194.65,163.41,195.99,163.99,197.66,164.58z M205.09,172.82
	c0-1,0.04-1.82-0.01-2.63c-0.05-0.82,0.19-1.21,1.09-1.15c0.98,0.07,1.96,0.02,2.95,0.01c2.38-0.01,2.09,0.33,2.15-2.19
	c0.02-0.8-0.28-1-1-0.98c-1.27,0.04-2.54-0.04-3.8,0.02c-0.93,0.04-1.43-0.11-1.41-1.23c0.03-1.01,0.32-1.37,1.35-1.3
	c1.34,0.09,2.7-0.03,4.05,0.04c1.03,0.06,1.43-0.33,1.32-1.35c-0.1-0.87,0.35-1.96-1.28-1.91c-2.74,0.09-5.48,0.06-8.22,0
	c-0.95-0.02-1.17,0.31-1.16,1.21c0.04,4.52,0.02,9.05,0.02,13.57c0,0.31,0.05,0.63,0.09,0.96c3.54,0,6.99,0,10.44,0
	c0-1.06,0-2.02,0-3.08C209.48,172.82,207.41,172.82,205.09,172.82z"/>
<path class="st1" d="M122.9,125.81c-2.26,1.54-4.5,2.36-6.86,2.76c-5.18,0.88-9.1-1.65-10.44-6.79c-1.27-4.88-0.26-9.53,1.91-13.96
	c1.76-3.61,4.49-6.52,6.9-9.67c3.45-4.51,7.02-8.94,10.21-13.63c4.09-6,5.9-12.8,4.67-20.01c-1.16-6.8-4.75-12.08-11.45-14.67
	c-3.96-1.53-9.3-0.09-12.16,3.08c-0.32,0.35-0.85,0.52-1.28,0.78c-0.27-0.51-0.73-1.01-0.77-1.55c-0.25-3.22,0.91-6.07,2.7-8.64
	c3.11-4.46,7.3-7.38,12.57-8.87c4.49-1.27,8.57-0.54,12.39,1.92c5.19,3.34,8.86,7.93,10.78,13.86c1.27,3.91,1.47,7.91,0.94,11.94
	c-0.93,7.06-3.92,13.3-7.72,19.21c-3.08,4.81-6.68,9.19-10.6,13.33c-3.58,3.77-7.13,7.55-9.65,12.17c-2.2,4.04-4.2,8.13-4.41,12.86
	c-0.24,5.3,2.84,7.05,7.57,6.59C119.68,126.39,121.15,126.08,122.9,125.81z"/>
<path class="st0" d="M219.91,147.21c1.04-0.92,2.32-1.67,3.07-2.79c2.28-3.39,4.35-6.92,6.5-10.39c0.57-0.92,1.11-1.87,1.66-2.8
	c0.18,0.05,0.35,0.11,0.53,0.16c-0.14,0.82-0.09,1.73-0.45,2.44c-3.18,6.43-6.83,12.54-12.33,17.3c-0.58,0.5-1.25,0.92-1.93,1.29
	c-1.94,1.08-3.75,0.53-4.46-1.56c-0.54-1.61-0.84-3.33-1-5.03c-0.17-1.77-0.04-3.56-0.32-5.4c-0.54,1.32-1.06,2.66-1.63,3.96
	c-1.01,2.3-2.15,4.52-4.05,6.24c-3.09,2.79-7.16,2.45-9.79-0.8c-2.19-2.71-3.2-5.9-3.38-9.31c-0.68-12.42,4.6-22.03,14.12-29.51
	c2.2-1.73,4.7-2.97,7.58-3.17c1.48-0.11,2.78,0.21,3.7,1.45c2.12,2.85,4.33,5.65,6.27,8.62c1.29,1.97,1.13,4.14,0.39,6.47
	c-1.43,4.51-2.52,9.14-3.61,13.75c-0.57,2.38-0.87,4.83-1.26,7.26c-0.08,0.5-0.01,1.03-0.01,1.54
	C219.65,147.03,219.78,147.12,219.91,147.21z M201.45,142.16c0.34,1.57,0.5,2.84,0.91,4.02c0.36,1.04,1.34,1.46,2.29,0.87
	c0.83-0.51,1.73-1.24,2.1-2.09c1.14-2.57,2.16-5.2,3-7.88c1.76-5.62,3.36-11.29,5.04-16.93c0.65-2.19,1.38-4.36,2-6.56
	c0.36-1.3-0.23-1.87-1.58-1.63c-0.39,0.07-0.85,0.17-1.13,0.42c-1.22,1.12-2.56,2.17-3.54,3.48c-3.42,4.59-5.46,9.85-6.83,15.36
	C202.79,134.92,202.16,138.67,201.45,142.16z"/>
<path class="st0" d="M125.73,104.05c1.33-0.79,2.7-0.66,3.82,0.39c1.76,1.65,2.46,3.85,2.95,6.1c1.09,5.02,1.23,10.1,0.39,15.17
	c-1.09,6.6-2.66,13.08-5.44,19.18c-3.31,7.25-7.88,13.52-14.77,17.8c-2.67,1.65-5.56,2.64-8.73,2.2c-3.3-0.46-5.73-2.51-7.81-4.94
	c-2.93-3.43-4.32-7.55-5.11-11.93c-1.16-6.47-0.8-12.94-0.19-19.42c0.25-2.64,0.67-5.28,1.13-7.89c0.19-1.11,0.62-2.21,1.98-2.97
	c0,0.94,0.08,1.7-0.01,2.43c-0.41,3.38-1.12,6.74-1.23,10.13c-0.15,4.54,0.04,9.11,0.3,13.65c0.18,3.08,0.97,6.07,2.61,8.75
	c2.3,3.75,5.3,4.43,8.95,3.36c8.33-2.44,13.9-8.22,17.36-15.9c2.21-4.89,3.75-10.12,5.2-15.31c0.94-3.36,1.43-6.9,1.69-10.39
	c0.26-3.54-0.72-6.91-2.82-9.86C125.88,104.43,125.82,104.23,125.73,104.05z"/>
<path class="st0" d="M159.41,113.78c-0.44-0.41-0.83-0.88-1.32-1.2c-1.83-1.22-3.65-1.05-5.62,0.49c-2.18,1.7-3.63,3.99-4.89,6.39
	c-3.21,6.11-5.16,12.65-5.84,19.51c-0.24,2.38-0.04,4.84,0.27,7.22c0.38,2.93,2.58,4.16,5.28,2.99c1.59-0.69,3.02-1.75,4.51-2.66
	c0.33-0.2,0.63-0.47,1.03-0.77c0.42,1.35,0.3,2.24-0.89,3.12c-2.38,1.76-4.74,3.5-7.61,4.34c-4.41,1.29-7.86-0.08-9.98-4.16
	c-2.24-4.3-3.11-8.89-2.09-13.7c0.76-3.59,1.23-7.35,2.65-10.68c3.29-7.7,8.49-13.76,16.76-16.43c1.27-0.41,2.76-0.43,4.1-0.26
	C158.39,108.32,160.1,111.17,159.41,113.78z"/>
<path class="st1" d="M112.72,65.05c3.54,1.58,6.42,3.97,7.43,8c0.9,3.61-0.04,7.03-1.86,10.13c-1.11,1.89-2.53,3.61-3.95,5.3
	c-3.56,4.23-7.25,8.34-9.81,13.3c-2.56,4.96-3.38,10.15-1.96,15.62c0.11,0.44,0.21,0.88,0.28,1.33c0.03,0.19-0.02,0.4-0.05,0.69
	c-0.24-0.09-0.5-0.1-0.57-0.22c-3.07-5.26-5.11-10.74-3.5-16.98c1.02-3.95,3.09-7.36,5.31-10.72c2.21-3.34,4.5-6.65,6.34-10.19
	c1.81-3.48,3.3-7.19,3.08-11.26C113.36,68.39,112.98,66.75,112.72,65.05z"/>
<path class="st1" d="M232.47,179.18c-4.8,0-9.25,0-13.8,0c0-7.16,0-14.29,0-21.53c4.47,0,8.94,0,13.88,0
	c-0.95,1.53-1.71,2.84-2.54,4.1c-1.14,1.74-2.34,3.45-3.5,5.18c-0.69,1.03-0.68,2.09,0.02,3.11c1.48,2.16,3,4.29,4.46,6.47
	C231.52,177.29,231.91,178.17,232.47,179.18z"/>
<path class="st1" d="M98.05,134.19c1,1.12,1.79,2.1,2.67,2.99c2.83,2.84,6.49,3.45,10.13,1.74c2.67-1.25,4.89-3.09,6.89-5.22
	c0.13-0.13,0.12-0.4,0.17-0.6c0.18,0.13,0.37,0.27,0.55,0.4c-0.93,2.25-1.82,4.51-2.8,6.74c-1.58,3.58-3.6,6.89-6.33,9.71
	c-1.55,1.6-3.35,2.71-5.66,2.84c-3.78,0.21-5.4-1.72-6.21-4.79c-0.87-3.28-0.61-6.59-0.08-9.89
	C97.58,136.87,97.8,135.64,98.05,134.19z"/>
<path class="st0" d="M143.72,97.89c-2.83-1.7-3.98-1.78-5.07-0.48c-1,1.2-0.96,3.95,0.08,5.07c1.04,1.12,2.69,0.94,4.84-0.52
	c0.4,2.79,0.32,2.66-2.27,3.18c-3.58,0.71-5.92-1.51-6.05-5.2c-0.13-3.84,2.73-6.3,7.15-5.13c0.92,0.24,1.53,0.71,1.32,1.81
	C143.66,96.98,143.72,97.35,143.72,97.89z"/>
<path class="st0" d="M151.75,105.1c-0.96-0.08-1.77-0.15-2.57-0.22c0-0.12,0.01-0.25,0.01-0.37c-0.36,0.17-0.73,0.34-1.09,0.5
	c-1.04,0.46-2,0.33-2.85-0.41c-0.85-0.75-0.85-1.74-0.6-2.73c0.27-1.06,1.18-1.42,2.09-1.65c0.82-0.21,1.68-0.25,2.53-0.37
	c-0.42-1.27-0.86-1.33-3.98-0.63c-0.36-1.75-0.35-1.78,1.28-2.06c0.56-0.09,1.14-0.16,1.7-0.14c2.59,0.1,3.66,1.01,3.5,3.58
	C151.68,102.03,151.75,103.47,151.75,105.1z M149.26,101.41c-1.01,0.12-2.12-0.05-2.3,1.21c-0.12,0.85,0.65,0.91,1.27,0.87
	C149.6,103.4,149.36,102.43,149.26,101.41z"/>
<path class="st0" d="M165.9,101.61c-1.64,0-3.3,0-4.96,0c0.15,2.04,1.78,2.36,4.78,1.06c0.39,1.94,0.3,2.16-1.53,2.44
	c-0.91,0.14-1.89,0.14-2.79-0.03c-1.57-0.29-2.68-1.25-2.95-2.89c-0.29-1.75-0.04-3.42,1.56-4.48c1.38-0.92,2.92-1.03,4.42-0.26
	C165.73,98.13,166.22,99.55,165.9,101.61z M163.58,100.15c-0.04-1.07-0.48-1.64-1.42-1.55c-0.82,0.08-1.39,0.57-1.3,1.55
	C161.77,100.15,162.61,100.15,163.58,100.15z"/>
<path class="st0" d="M156.21,104.98c-0.99,0-1.71,0-2.5,0c0-1.99,0-3.91,0-5.83c-0.11,0.04-0.23,0.09-0.34,0.13
	c-0.28-0.58-0.56-1.17-0.85-1.75c0.14,0,0.29,0,0.43,0c0.26-0.36,0.65-0.68,0.75-1.08c0.41-1.61,1.07-2.19,2.74-2.2
	c0.61,0,1.22,0,1.93,0c0,0.61,0,1.15,0,1.7c-2.05,0.06-2.05,0.06-2.34,1.21c0.6,0.05,1.18,0.09,1.83,0.14c0,0.52,0,0.99,0,1.53
	c-0.51,0.04-0.99,0.08-1.66,0.13C156.21,100.92,156.21,102.89,156.21,104.98z"/>
<path class="st0" d="M164.54,93.52c-2.02,3.05-1.88,2.81-3.24,2.59C161.64,93.81,162.43,93.15,164.54,93.52z"/>
<path class="st1" d="M155.35,167.92c0.37-1.14,0.69-2.31,1.13-3.43c0.47-1.22,1.58-1.51,2.72-1.48c1.09,0.03,1.87,0.68,2.38,1.67
	c1.33,2.61,0.99,6.02-0.77,7.67c-1.18,1.11-2.92,0.99-4.01-0.22C155.72,170.94,155.58,169.5,155.35,167.92z"/>
</svg>
